<?xml version="1.0" encoding="utf-8"?>
<!-- Generator: Adobe Illustrator 27.8.1, SVG Export Plug-In . SVG Version: 6.00 Build 0)  -->
<svg version="1.1" id="Warstwa_1" xmlns="http://www.w3.org/2000/svg" xmlns:xlink="http://www.w3.org/1999/xlink" x="0px" y="0px"
	 viewBox="0 0 595.28 841.89" style="enable-background:new 0 0 595.28 841.89;" xml:space="preserve">
<style type="text/css">
	.st0{stroke:#FFFFFF;stroke-miterlimit:10;}
	.st1{fill:#FFFFFF;}
	.st2{fill:none;stroke:#FFFFFF;stroke-width:5;stroke-miterlimit:10;}
</style>
<rect x="47.81" y="176.84" class="st0" width="516.53" height="516.53"/>
<path class="st1" d="M71.1,324.93c-5.17,12.7-8.05,26.58-8.05,41.14c0,60.27,48.86,109.13,109.13,109.13
	c49.79,0,91.75-33.35,104.86-78.92L71.1,324.93z"/>
<path class="st1" d="M542.69,337.59c4.57,13.99,6.59,29.07,5.48,44.66c-4.6,64.53-60.64,113.11-125.17,108.52
	c-53.3-3.8-95.69-42.71-106.25-92.49L542.69,337.59z"/>
<circle cx="217.36" cy="405.41" r="47.31"/>
<circle cx="385.3" cy="414.32" r="47.31"/>
<circle class="st1" cx="231.62" cy="398.64" r="14.26"/>
<circle class="st1" cx="371.04" cy="400.06" r="14.26"/>
<g>
	<path d="M138.17,322.54c-2.23,3.93,17.35,18.78,45.61,40.22c45.81,34.74,75.5,56.84,90.24,47.57c4.31-2.71,9.39-9.4,8.83-28.45
		C167.91,326.08,140.55,318.36,138.17,322.54z"/>
	<path class="st1" d="M140.05,323.61c0.09-0.09,0.11-0.25,0.13-0.35c-0.02-0.06,0.01,0.01,0.01,0.02c0.01,0.03-0.01,0.03,0.03,0.11
		c1.43,2.8,4.12,4.97,6.45,7.17c3.02,2.69,6.2,5.28,9.41,7.83c6.44,5.09,13.04,10.03,19.64,14.97
		c13.25,9.85,26.45,19.78,39.85,29.31c12.36,8.4,37.66,27.52,52.27,26.01c11.28-1.59,11.18-17.78,11.02-26.67
		c0,0,2.25,3.48,2.25,3.48c-28.68-15.97-58.01-30.77-88.05-43.99c-15.01-6.31-30.18-12.69-45.92-16.86
		c-2.4-0.48-4.94-1.24-7.27-0.79C139.7,323.89,139.93,323.89,140.05,323.61L140.05,323.61z M136.3,321.48
		c2.48-3.62,8.45-1.46,11.83-0.76c9.62,2.68,18.76,6.59,27.91,10.43c34.71,14.88,73.69,32.68,108.56,47.14c0,0,2.07,0.86,2.07,0.86
		c0.4,5.19,0.22,10.38-0.54,15.66c-0.71,4.38-1.83,8.92-4.57,13.15c-9,13.9-26.86,6.95-38.31,0.51c-11-6.07-21.22-13.43-31.29-20.81
		c-19.92-14.93-39.51-29.96-58.88-45.56c-4.83-4.04-9.73-8.01-13.99-12.75C137.37,327.32,134.83,324.36,136.3,321.48L136.3,321.48z"
		/>
</g>
<g>
	<path d="M462.19,316.8c2.38,4.18-18.46,19.98-48.53,42.79c-48.73,36.96-80.33,60.47-96.01,50.61c-4.59-2.89-9.99-10.01-9.39-30.26
		C430.56,320.57,459.67,312.35,462.19,316.8z"/>
	<path class="st1" d="M463.34,316.15c1.92,3.78-5.17,9.58-7.55,12.05c-23.04,20.22-48.13,38.64-72.49,57.33
		c-10.67,7.87-21.49,15.71-33.16,22.19c-10.98,5.97-26.98,13.3-37.66,2.85c-7.73-8.38-8.16-20.22-8.21-30.75
		c0,0,0.22-2.67,0.22-2.68c0,0,2.03-0.81,2.03-0.81c37.46-15.04,78.63-33.68,115.75-49.5C428.4,324.5,460.18,309.81,463.34,316.15
		L463.34,316.15z M461.05,317.45c-0.98-0.59-2.41-0.39-3.63-0.3c-5.09,0.64-10.06,2.25-14.97,3.82c-6.61,2.17-13.15,4.61-19.66,7.13
		c-38.91,15.6-76.34,34.72-112.77,55.43c0,0,2.25-3.48,2.25-3.48c-0.25,9.71-0.34,27.04,11.92,28.83
		c11.31,1.1,24.68-7.4,34.29-13.03c22.23-13.94,43.07-30.09,64.26-45.62c10.51-7.88,21.17-15.6,31.05-24.22
		c2.34-2.14,4.77-4.29,6.54-6.87c0.27-0.4,0.48-0.81,0.61-1.16C461.06,317.64,461.04,317.42,461.05,317.45L461.05,317.45z"/>
</g>
<g>
	<path class="st2" d="M194.87,682.59c0,1.92-0.9,2.88-2.69,2.88h-32.89c-1.8,0-2.69-1.08-2.69-3.25c0-6.25,0.23-15.64,0.7-28.15
		c0.46-12.51,0.7-21.89,0.7-28.15c0-1.8-0.28-2.75-0.84-2.88c-0.68,0.37-4.83,9.94-12.45,28.71c-4.46,11.03-8.92,22.02-13.38,32.98
		c-0.62,1.42-1.39,2.26-2.32,2.51c-0.31,0.06-1.55,0.09-3.72,0.09c-3.22,0-5.14-0.62-5.76-1.86c-3.34-6.81-7.74-16.72-13.19-29.73
		c-5.82-13.75-10.19-23.69-13.1-29.82c-0.12-0.31-0.4-0.65-0.84-1.02c-0.43,0.56-0.65,1.46-0.65,2.69c0,6.07,0.15,15.17,0.46,27.31
		c0.31,12.14,0.46,21.24,0.46,27.31c0,2.17-0.87,3.25-2.6,3.25H59.05c-1.24,0-2-0.2-2.28-0.6c-0.28-0.4-0.42-1.1-0.42-2.09
		c0-6.75,0.33-16.89,0.98-30.43c0.65-13.53,0.98-23.67,0.98-30.43c0-7.18-0.31-20.65-0.93-40.41c-0.06-5.14-0.34-12.79-0.84-22.95
		l-0.09-1.58c-0.06-1.24,1.24-1.86,3.9-1.86c3.41,0,8.52-0.11,15.33-0.33c6.81-0.22,11.92-0.33,15.33-0.33c0.68,0,1.64,1.3,2.88,3.9
		l27.13,59.55c1.92,4.03,3.53,6.04,4.83,6.04c0.68,0,2.14-2.32,4.37-6.97c6.26-13.01,15.52-32.61,27.78-58.81
		c1.05-2.42,2.2-3.62,3.44-3.62c1.8,0,4.51,0.09,8.13,0.28c3.62,0.19,6.36,0.28,8.22,0.28c1.55,0,3.92-0.15,7.11-0.46
		c3.19-0.31,5.56-0.46,7.11-0.46c1.86,0,2.79,0.74,2.79,2.23c0,7.31-0.26,18.23-0.79,32.75c-0.53,14.52-0.79,25.44-0.79,32.75
		c0,6.75,0.28,16.88,0.84,30.38C194.59,665.81,194.87,675.9,194.87,682.59z"/>
	<path class="st2" d="M321.97,645.33c0,11.4-3.56,20.84-10.69,28.34c-8.11,8.61-22.36,12.91-42.73,12.91
		c-1.55,0-3.78-0.03-6.69-0.09c-2.97,0-5.17,0-6.6,0c-22.85,0-36.45-0.46-40.79-1.39c-1.8-0.37-2.69-1.33-2.69-2.88
		c0-6.63,0.39-16.66,1.16-30.1c0.77-13.44,1.16-23.5,1.16-30.19c0-7.18-0.37-20.69-1.11-40.51c-0.19-5.08-0.53-12.7-1.02-22.85
		l-0.09-1.3c-0.06-1.18,0.91-1.89,2.93-2.14c2.01-0.25,9.18-0.37,21.51-0.37c19.76,0,31.31,0.06,34.65,0.19
		c15.24,0.56,26.48,3.04,33.73,7.43c9.6,5.88,14.4,15.83,14.4,29.82c0,3.66-1.12,7.52-3.34,11.61c-1.61,2.91-3.72,5.82-6.32,8.73
		c-2.29,2.54-3.44,3.72-3.44,3.53c0,0.43,0.8,1.12,2.42,2.04c4.33,2.48,7.74,6.41,10.22,11.8
		C320.85,634.74,321.97,639.89,321.97,645.33z M282.02,593.03c0-5.33-2.66-8.86-7.99-10.59c-2.97-0.93-7.87-1.39-14.68-1.39
		c-6.69,0-10.03,0.5-10.03,1.49c0,1.18-0.11,2.96-0.33,5.34c-0.22,2.38-0.33,4.17-0.33,5.34c0,6.19,0.53,9.66,1.58,10.41
		c0.68,0.56,4.61,0.84,11.8,0.84C275.36,604.46,282.02,600.65,282.02,593.03z M284.81,644.96c0-5.57-2.32-9.35-6.97-11.33
		c-2.97-1.24-7.8-1.86-14.49-1.86c-7.99,0-12.33,0.29-13.01,0.88c-0.68,0.59-1.02,4.38-1.02,11.38c0,7.31,0.4,11.35,1.21,12.12
		c0.8,0.78,5.26,1.16,13.38,1.16c6.69,0,11.4-0.53,14.12-1.58C282.54,653.94,284.81,650.35,284.81,644.96z"/>
	<path class="st2" d="M443.58,645.33c0,11.4-3.56,20.84-10.68,28.34c-8.11,8.61-22.36,12.91-42.74,12.91
		c-1.55,0-3.78-0.03-6.69-0.09c-2.97,0-5.17,0-6.6,0c-22.85,0-36.45-0.46-40.78-1.39c-1.8-0.37-2.69-1.33-2.69-2.88
		c0-6.63,0.39-16.66,1.16-30.1c0.77-13.44,1.16-23.5,1.16-30.19c0-7.18-0.37-20.69-1.11-40.51c-0.19-5.08-0.53-12.7-1.02-22.85
		l-0.09-1.3c-0.06-1.18,0.91-1.89,2.93-2.14c2.01-0.25,9.18-0.37,21.51-0.37c19.76,0,31.31,0.06,34.65,0.19
		c15.24,0.56,26.48,3.04,33.72,7.43c9.6,5.88,14.4,15.83,14.4,29.82c0,3.66-1.11,7.52-3.34,11.61c-1.61,2.91-3.72,5.82-6.32,8.73
		c-2.29,2.54-3.44,3.72-3.44,3.53c0,0.43,0.8,1.12,2.42,2.04c4.33,2.48,7.74,6.41,10.22,11.8
		C442.46,634.74,443.58,639.89,443.58,645.33z M403.63,593.03c0-5.33-2.66-8.86-7.99-10.59c-2.97-0.93-7.87-1.39-14.68-1.39
		c-6.69,0-10.03,0.5-10.03,1.49c0,1.18-0.11,2.96-0.33,5.34c-0.22,2.38-0.33,4.17-0.33,5.34c0,6.19,0.53,9.66,1.58,10.41
		c0.68,0.56,4.61,0.84,11.8,0.84C396.97,604.46,403.63,600.65,403.63,593.03z M406.42,644.96c0-5.57-2.32-9.35-6.97-11.33
		c-2.97-1.24-7.8-1.86-14.49-1.86c-7.99,0-12.33,0.29-13.01,0.88c-0.68,0.59-1.02,4.38-1.02,11.38c0,7.31,0.4,11.35,1.21,12.12
		c0.8,0.78,5.26,1.16,13.38,1.16c6.69,0,11.4-0.53,14.12-1.58C404.16,653.94,406.42,650.35,406.42,644.96z"/>
	<path class="st2" d="M557.94,673.11c0,6.07-0.28,9.66-0.84,10.78c-0.68,1.36-2.79,2.04-6.32,2.04c-0.56,0-1.8,0-3.72,0
		c-1.86-0.06-3.42-0.09-4.69-0.09c-1.27,0-3.16-0.06-5.67-0.19c-2.51-0.12-4.38-0.19-5.62-0.19c-0.99,0-5.45-5.95-13.38-17.84
		c-7.93-11.89-12.05-17.87-12.36-17.93c-1.3,1.05-5.76,7.31-13.38,18.77c-7.31,10.96-11.58,16.63-12.82,17
		c-0.87,0.25-3.19,0.37-6.97,0.37c-12.7,0-19.05-0.65-19.05-1.95s-0.08-3.16-0.23-5.57c-0.16-2.42-0.23-4.21-0.23-5.39
		c0-7.68,0.46-12.2,1.39-13.56c0.06-0.06,5.17-6.84,15.33-20.35c8.24-10.9,12.36-17.12,12.36-18.67c0-1.55-4.12-7.68-12.36-18.39
		c-5.2-6.63-10.38-13.29-15.52-19.97c-0.56-0.8-0.9-2.14-1.02-4c-0.06-1.3-0.06-3.07,0-5.29c0.19-2.66,0.28-4.15,0.28-4.46
		c0-1.24-0.11-3.16-0.33-5.76c-0.22-2.6-0.33-4.52-0.33-5.76c0-1.18,1.08-1.76,3.25-1.76c1.42,0,3.53,0.09,6.32,0.28
		c2.79,0.19,4.86,0.28,6.22,0.28c1.24,0,3.07-0.06,5.48-0.19c2.42-0.12,4.21-0.19,5.39-0.19c0.99,0,5.5,6.02,13.52,18.07
		c8.02,12.05,12.22,18.07,12.59,18.07c1.24-0.74,5.79-7.06,13.66-18.95c7.49-11.46,11.8-17.19,12.91-17.19h22.11
		c2.17,0,3.25,0.53,3.25,1.58v22.58c0,1.61-4.78,8.64-14.35,21.09s-14.35,19.05-14.35,19.79c0,1.05,4.21,7.15,12.63,18.3
		c9.91,13.07,15.08,19.91,15.51,20.53C557.51,660.36,557.94,665.06,557.94,673.11z"/>
</g>
</svg>
